<svg fill="none" height="89" viewBox="0 0 311 89" width="311" xmlns="http://www.w3.org/2000/svg"><g fill="#000"><path d="m54.7163 86.6888 21.9733-5.4665s-9.4605-64.0296-9.5208-64.4689c-.0602-.4392-.4436-.683-.7618-.7095-.3159-.0266-6.5023-.1207-6.5023-.1207s-3.7708-3.6661-5.1884-5.0538z"/><path d="m52.3246 10.1381c-.0048.0025-.9716.3017-2.5989.8061-.2725-.8833-.6727-1.96935-1.2441-3.06024-1.842-3.51885-4.5398-5.37964-7.7994-5.38447-.0048 0-.0072 0-.012 0-.2267 0-.4509.02172-.6775.04103-.0965-.11585-.1929-.22928-.2941-.3403-1.4201-1.520494-3.2404-2.2614313-5.4223-2.19626744-4.2095.12067344-8.4021 3.16406744-11.8015 8.57025744-2.3917 3.80369-4.2119 8.58229-4.7279 12.28219-4.8339 1.4988-8.21404 2.5462-8.28878 2.5703-2.43987.7675-2.51702.8424-2.83527 3.1448-.23868 1.7401-6.62285 51.1585-6.62285 51.1585l52.966 9.1688v-76.8693c-.2604.0169-.4943.0652-.6414.1086zm-12.2307 3.7916c-2.8039.8689-5.8634 1.8174-8.9325 2.7683.8631-3.3089 2.5002-6.6033 4.5109-8.76336.7474-.80369 1.7937-1.69909 3.0329-2.21075 1.1645 2.43279 1.4177 5.87681 1.3887 8.20581zm-5.7356-11.12129c.9885-.02172 1.8203.19549 2.5315.66371-1.138.5913-2.2373 1.44084-3.2692 2.54863-2.6738 2.87204-4.7231 7.32975-5.5404 11.63055-2.5483.7892-5.0413 1.5639-7.3365 2.2735 1.449-6.7698 7.1171-16.92814 13.6146-17.11639zm-8.1899 38.56499c.2844 4.5108 12.139 5.4955 12.8045 16.0617.5231 8.312-4.4048 13.9981-11.5051 14.447-8.5226.5382-13.2143-4.4963-13.2143-4.4963l1.8058-7.6917s4.723 3.5671 8.5034 3.3282c2.4688-.1569 3.3512-2.1673 3.262-3.5889-.3713-5.884-10.0247-5.5365-10.6347-15.2049-.5135-8.1358 4.8243-16.3803 16.6017-17.1236 4.5374-.2872 6.8616.8737 6.8616.8737l-2.693 10.0859s-3.0041-1.3685-6.565-1.144c-5.2245.3306-5.28 3.6275-5.2269 4.4529zm16.7246-28.3101c-.0313-2.1335-.2844-5.10211-1.2778-7.66764 3.1945.60578 4.7665 4.22359 5.4319 6.38124-1.232.3789-2.6352.8133-4.1541 1.2864z"/><path d="m107.222 49.0452c-2.667-1.4467-4.037-2.6662-4.037-4.3424 0-2.133 1.904-3.5032 4.876-3.5032 3.46 0 6.549 1.4467 6.549 1.4467l2.437-7.4653s-2.24-1.7528-8.835-1.7528c-9.1778 0-15.5385 5.2559-15.5385 12.6447 0 4.1894 2.9699 7.3889 6.9322 9.6725 3.1993 1.8268 4.3423 3.1229 4.3423 5.0263 0 1.9799-1.6 3.5796-4.5695 3.5796-4.4261 0-8.606-2.286-8.606-2.286l-2.5896 7.4654s3.8618 2.5896 10.3587 2.5896c9.4454 0 16.2244-4.6461 16.2244-13.0249-.002-4.4906-3.429-7.6901-7.544-10.0502z"/><path d="m144.85 33.3541c-4.646 0-8.303 2.2095-11.119 5.5595l-.153-.0765 4.036-21.0976h-10.512l-10.206 53.697h10.512l3.503-18.355c1.371-6.9321 4.95-11.1956 8.303-11.1956 2.36 0 3.276 1.5997 3.276 3.8857 0 1.4467-.153 3.1995-.457 4.6461l-3.96 21.0211h10.512l4.113-21.7073c.456-2.286.762-5.0264.762-6.8556-.004-5.9422-3.127-9.5218-8.61-9.5218z"/><path d="m177.219 33.3541c-12.644 0-21.021 11.4252-21.021 24.144 0 8.1493 5.027 14.6988 14.472 14.6988 12.415 0 20.794-11.1191 20.794-24.144 0-7.5395-4.419-14.6988-14.245-14.6988zm-5.179 30.7725c-3.58 0-5.103-3.0464-5.103-6.8556 0-6.0163 3.123-15.8418 8.836-15.8418 3.732 0 4.949 3.1995 4.949 6.3224 0 6.473-3.12 16.375-8.682 16.375z"/><path d="m218.351 33.3541c-7.095 0-11.122 6.2459-11.122 6.2459h-.151l.61-5.6361h-9.292c-.457 3.8092-1.296 9.5959-2.133 13.9383l-7.312 38.4626h10.511l2.894-15.5381h.229s2.157 1.3702 6.17 1.3702c12.338 0 20.411-12.6423 20.411-25.4401 0-7.0803-3.123-13.4027-10.815-13.4027zm-10.055 30.9231c-2.729 0-4.343-1.5232-4.343-1.5232l1.753-9.8255c1.219-6.5495 4.646-10.8919 8.302-10.8919 3.2 0 4.19 2.9699 4.19 5.7891 0 6.7791-4.037 16.4515-9.902 16.4515z"/><path d="m244.171 18.2727c-3.35 0-6.016 2.6662-6.016 6.0928 0 3.1229 1.979 5.2559 4.949 5.2559h.153c3.276 0 6.093-2.2095 6.17-6.0928 0-3.0464-2.057-5.2559-5.256-5.2559z"/><path d="m229.472 71.4365h10.51l7.161-37.243h-10.588z"/><path d="m273.877 34.1169h-7.312l.38-1.7527c.609-3.5797 2.742-6.7791 6.246-6.7791 1.869 0 3.35.5332 3.35.5332l2.056-8.2257s-1.827-.9135-5.713-.9135c-3.732 0-7.462 1.0665-10.282 3.5031-3.579 3.0464-5.256 7.463-6.093 11.882l-.303 1.7527h-4.876l-1.523 7.9221h4.876l-5.56 29.3999h10.512l5.559-29.3999h7.236z"/><path d="m299.164 34.1934s-6.571 16.5544-9.522 25.5907h-.153c-.201-2.9101-2.589-25.5907-2.589-25.5907h-11.045l6.324 34.1967c.153.7604.077 1.2195-.229 1.7527-1.22 2.3602-3.276 4.6462-5.713 6.3224-1.98 1.4467-4.189 2.3601-5.94 2.9699l2.894 8.912c2.133-.4567 6.549-2.2095 10.282-5.7126 4.799-4.4931 9.216-11.4252 13.785-20.8704l12.872-27.5731h-10.966z"/></g></svg>